<?xml version="1.0" encoding="utf-8"?>
<!-- Generator: Adobe Illustrator 16.0.0, SVG Export Plug-In . SVG Version: 6.00 Build 0)  -->
<!DOCTYPE svg PUBLIC "-//W3C//DTD SVG 1.1//EN" "http://www.w3.org/Graphics/SVG/1.1/DTD/svg11.dtd">
<svg version="1.1" id="Layer_1" xmlns="http://www.w3.org/2000/svg" xmlns:xlink="http://www.w3.org/1999/xlink" x="0px" y="0px"
	 width="528px" height="642px" viewBox="0 0 528 642" enable-background="new 0 0 528 642" xml:space="preserve">
<path fill-rule="evenodd" clip-rule="evenodd" fill="#FFFFFF" d="M472,1c53.812-0.901,63.809,48.049,55,103
	c-11.283,70.383-24.22,137.719-25,213c-23.994-18.102-40.332-43.042-76-50c-43.012-8.391-59.297,43.667-69,71
	c-35.517,100.055-39.748,226.866-97,304c-0.333,0-0.667,0-1,0c-53.185-37.671-53.414-117.428-68-194
	c-6.992-36.706-4.003-90.213-29-109c-15.725,5.895-20.662,27.593-27,43c-16.043,38.996-27.279,86.058-49,120
	c-1.667,0.333-3.333,0.667-5,1c-28.543-39.278-29.21-79.686-41-135c-3.333-18.665-6.667-37.335-10-56c-0.333,0-0.667,0-1,0
	c-3,21.998-6,44.002-9,66c-0.333,0-0.667,0-1,0c-6.333-3-12.667-6-19-9c1.871-43.25,11.589-106.905,36-130
	c28.874,4.371,23.358,105.681,51,122c0.667-0.333,1.333-0.667,2-1c18.163-49.691,28.175-118.65,50-167
	c5.696-12.618,20.581-41.296,37-38c22.391,8.788,26.02,44.418,32,70c11.97,51.205,16.893,159.314,43,193
	c23.02-18.335,37.844-76.205,50-107c32.773-83.027,82.462-252.032,144-299C453.002,5.893,461.504,5.396,472,1z"/>
</svg>
